<?xml version="1.0" standalone="no"?>
<!DOCTYPE svg PUBLIC "-//W3C//DTD SVG 20010904//EN"
 "http://www.w3.org/TR/2001/REC-SVG-20010904/DTD/svg10.dtd">
<svg version="1.0" xmlns="http://www.w3.org/2000/svg"
 width="2000" height="1000" viewBox="0 0 1280.000000 720.000000"
 preserveAspectRatio="xMidYMid meet">
<metadata>
Created by potrace 1.15, written by Peter Selinger 2001-2017
</metadata>
<g transform="translate(0.000000,720.000000) scale(0.100000,-0.100000)"
fill="#000000" stroke="none">
<path d="M7086 5873 c-159 -156 -782 -771 -1386 -1369 -223 -221 -467 -461
-544 -535 -133 -129 -176 -186 -176 -237 0 -22 134 -357 160 -399 38 -63 32
-62 434 -73 203 -5 370 -11 372 -12 3 -3 -135 -230 -886 -1453 -145 -236 -269
-441 -277 -455 -23 -44 -17 -98 16 -131 63 -62 -43 -126 1564 947 804 537
1470 984 1480 993 10 8 25 30 32 48 20 46 148 622 147 661 0 20 -9 43 -22 57
-12 13 -94 54 -183 93 -89 38 -346 149 -571 246 -225 97 -417 181 -426 186
-17 9 -17 14 10 82 15 40 126 323 245 628 328 842 300 761 281 802 -19 39 -51
58 -98 58 -27 0 -52 -20 -172 -137z"/>
</g>
</svg>
