<svg version="1.1" id="Layer_1" xmlns="http://www.w3.org/2000/svg" xmlns:xlink="http://www.w3.org/1999/xlink" x="0px" y="0px"
	 width="80px" viewBox="0 0 225 225" enable-background="new 0 0 225 225" xml:space="preserve">
<path fill="#011C40" opacity="1.000000" stroke="none" 
	d="
M128.000000,226.000000 
	C85.333336,226.000000 43.166672,226.000000 1.000006,226.000000 
	C1.000004,151.000000 1.000004,76.000015 1.000002,1.000016 
	C75.999992,1.000010 150.999985,1.000010 225.999969,1.000005 
	C225.999985,75.999985 225.999985,150.999969 226.000000,225.999969 
	C193.500000,226.000000 161.000000,226.000000 128.000000,226.000000 
M127.844742,136.723938 
	C130.912201,132.190689 133.979660,127.657417 137.613800,122.751091 
	C141.483307,117.142120 145.400772,111.565445 149.207184,105.913971 
	C152.263992,101.375412 151.419037,99.388763 145.954269,98.779732 
	C140.393539,98.159996 134.789566,97.928238 128.907822,97.505257 
	C128.907822,95.298241 128.790512,93.483391 128.927963,91.688042 
	C129.549652,83.567276 130.401474,75.459763 130.799515,67.329315 
	C130.898590,65.305458 129.615479,63.213936 128.967682,61.153519 
	C126.928291,61.867725 124.888901,62.581932 122.087990,63.083961 
	C119.889259,64.148247 116.999268,64.648560 115.599319,66.364525 
	C102.394714,82.549904 89.427803,98.929550 76.432533,115.285110 
	C73.376572,119.131287 74.276909,121.721718 79.228226,122.415863 
	C85.122040,123.242134 91.094261,123.509064 97.271446,124.923347 
	C96.668861,136.700531 95.953979,148.474075 95.571953,160.258423 
	C95.506683,162.271576 96.864479,164.330856 97.564865,166.368835 
	C99.520744,165.541245 101.476624,164.713669 104.041542,164.078979 
	C106.005615,163.399551 108.669708,163.299591 109.802048,161.931671 
	C113.150581,157.886475 115.893951,153.340332 119.442223,148.599396 
	C122.068596,144.770798 124.694969,140.942184 127.844742,136.723938 
M114.878288,199.321701 
	C119.153282,198.042053 120.959946,194.877441 120.802620,190.724411 
	C120.662392,187.022766 118.939537,184.129501 114.166451,182.943298 
	C110.790428,182.688217 107.414413,182.433151 103.261757,182.016846 
	C101.176094,181.701187 99.090431,181.385529 96.277611,180.807938 
	C93.863075,180.174728 91.448540,179.541534 88.695465,178.299957 
	C85.137581,176.843948 81.579697,175.387924 77.824028,173.287140 
	C74.209976,170.538757 70.595932,167.790359 66.683464,164.442871 
	C61.815037,158.287567 56.946609,152.132263 51.961433,145.252838 
	C47.147240,135.582306 44.711166,125.349243 44.369282,114.547867 
	C44.212757,109.602669 40.145599,106.065369 35.155968,106.007843 
	C30.644947,105.955849 26.938925,109.127579 26.914093,113.516205 
	C26.792622,134.983505 33.721272,153.870834 48.164459,170.663223 
	C53.721634,175.468887 59.278812,180.274551 65.215324,185.649399 
	C69.815941,188.072815 74.416565,190.496246 79.553993,193.377090 
	C82.698326,194.484848 85.842667,195.592621 89.720581,196.987808 
	C91.775856,197.445633 93.831123,197.903458 96.486794,198.705048 
	C97.864227,198.849976 99.241661,198.994904 101.006660,199.591095 
	C101.990868,199.667923 102.975067,199.744751 104.475029,199.933350 
	C104.648216,199.902573 104.821411,199.871780 105.756477,199.979095 
	C108.551895,199.789429 111.347313,199.599762 114.878288,199.321701 
M106.910835,45.918385 
	C114.941376,46.174812 122.971916,46.431244 131.723602,46.939724 
	C136.783142,48.996250 141.970901,50.791641 146.861221,53.192799 
	C150.700745,55.078011 156.361511,54.022854 158.746262,50.287094 
	C161.279922,46.318066 160.585114,40.281101 156.458984,38.488148 
	C148.165161,34.884186 139.509079,32.113911 130.328018,28.606792 
	C125.549049,28.123333 120.770081,27.639874 115.079063,27.030220 
	C107.385643,27.993551 99.692215,28.956882 91.197769,29.922209 
	C84.124092,32.921730 77.050423,35.921253 69.288834,39.056320 
	C57.782650,45.807869 48.426964,54.840664 41.059078,65.919838 
	C38.017086,70.494125 38.566071,74.700401 42.301304,77.925964 
	C46.082825,81.191490 49.924408,80.971161 54.122799,77.206444 
	C54.858505,76.546730 55.486202,75.766479 56.162804,75.040977 
	C61.455193,69.366127 66.747337,63.691036 72.701248,57.830872 
	C79.800468,54.220665 86.899696,50.610458 94.797638,46.976490 
	C98.529335,46.587101 102.261032,46.197712 106.910835,45.918385 
M188.161316,157.675797 
	C199.137970,139.165985 202.854752,119.121552 198.641296,98.195679 
	C196.748199,88.793793 192.602524,79.657524 188.267914,71.007607 
	C185.776550,66.035950 180.032013,65.867805 175.663544,68.913406 
	C171.998566,71.468552 171.465805,75.363503 174.093597,80.391266 
	C191.950562,114.557060 180.955551,153.666321 147.907761,173.534180 
	C143.732239,176.044449 142.024811,180.065079 143.484253,183.950455 
	C144.903595,187.729095 149.151855,189.974686 153.723907,189.103348 
	C155.478317,188.768997 157.236465,188.070755 158.803619,187.198288 
	C171.181915,180.306946 180.435593,170.245926 188.161316,157.675797 
z"/>
<path fill="#369AFB" opacity="1.000000" stroke="none" 
	d="
M187.988312,157.996338 
	C180.435593,170.245926 171.181915,180.306946 158.803619,187.198288 
	C157.236465,188.070755 155.478317,188.768997 153.723907,189.103348 
	C149.151855,189.974686 144.903595,187.729095 143.484253,183.950455 
	C142.024811,180.065079 143.732239,176.044449 147.907761,173.534180 
	C180.955551,153.666321 191.950562,114.557060 174.093597,80.391266 
	C171.465805,75.363503 171.998566,71.468552 175.663544,68.913406 
	C180.032013,65.867805 185.776550,66.035950 188.267914,71.007607 
	C192.602524,79.657524 196.748199,88.793793 198.641296,98.195679 
	C202.854752,119.121552 199.137970,139.165985 187.988312,157.996338 
z"/>
<path fill="#CB9802" opacity="1.000000" stroke="none" 
	d="
M103.432503,163.886093 
	C101.476624,164.713669 99.520744,165.541245 97.564865,166.368835 
	C96.864479,164.330856 95.506683,162.271576 95.571953,160.258423 
	C95.953979,148.474075 96.668861,136.700531 97.428131,124.289612 
	C105.533623,115.737724 113.482422,107.819580 121.854813,99.907433 
	C128.054520,100.262711 133.836899,100.532631 139.604736,100.986984 
	C144.022568,101.334991 145.073059,103.435120 142.701599,107.206436 
	C139.982819,111.530121 137.077286,115.736374 134.013794,120.248329 
	C130.495941,125.328918 127.217178,130.154831 123.649261,135.148987 
	C120.498314,139.513382 117.636528,143.709518 114.488434,148.073013 
	C110.612251,153.455612 107.022377,158.670853 103.432503,163.886093 
z"/>
<path fill="#FDC008" opacity="1.000000" stroke="none" 
	d="
M121.431221,99.901436 
	C113.482422,107.819580 105.533623,115.737724 97.308670,123.837112 
	C91.094261,123.509064 85.122040,123.242134 79.228226,122.415863 
	C74.276909,121.721718 73.376572,119.131287 76.432533,115.285110 
	C89.427803,98.929550 102.394714,82.549904 115.599319,66.364525 
	C116.999268,64.648560 119.889259,64.148247 122.625000,63.553539 
	C123.357185,66.429726 123.854790,68.856689 123.694397,71.239365 
	C123.050789,80.800850 122.203316,90.348602 121.431221,99.901436 
z"/>
<path fill="#35BBFC" opacity="1.000000" stroke="none" 
	d="
M47.925797,170.032501 
	C33.721272,153.870834 26.792622,134.983505 26.914093,113.516205 
	C26.938925,109.127579 30.644947,105.955849 35.155968,106.007843 
	C40.145599,106.065369 44.212757,109.602669 44.369282,114.547867 
	C44.711166,125.349243 47.147240,135.582306 51.635414,145.660263 
	C50.245014,147.363235 48.737007,148.508850 48.234867,149.994446 
	C47.677868,151.642303 48.018696,153.600464 48.004921,155.423782 
	C47.968140,160.293274 47.950840,165.162918 47.925797,170.032501 
z"/>
<path fill="#35BAFB" opacity="1.000000" stroke="none" 
	d="
M72.039566,58.016029 
	C66.747337,63.691036 61.455193,69.366127 56.162804,75.040977 
	C55.486202,75.766479 54.858505,76.546730 54.122799,77.206444 
	C49.924408,80.971161 46.082825,81.191490 42.301304,77.925964 
	C38.566071,74.700401 38.017086,70.494125 41.059078,65.919838 
	C48.426964,54.840664 57.782650,45.807869 69.610992,39.387527 
	C69.498329,41.121357 69.069717,42.525944 68.627625,43.926270 
	C66.746849,49.883492 67.897842,54.643490 72.039566,58.016029 
z"/>
<path fill="#379FFA" opacity="1.000000" stroke="none" 
	d="
M131.002487,28.999607 
	C139.509079,32.113911 148.165161,34.884186 156.458984,38.488148 
	C160.585114,40.281101 161.279922,46.318066 158.746262,50.287094 
	C156.361511,54.022854 150.700745,55.078011 146.861221,53.192799 
	C141.970901,50.791641 136.783142,48.996250 131.264114,46.428837 
	C130.870590,40.278503 130.936539,34.639053 131.002487,28.999607 
z"/>
<path fill="#4481EF" opacity="1.000000" stroke="none" 
	d="
M121.854813,99.907433 
	C122.203316,90.348602 123.050789,80.800850 123.694397,71.239365 
	C123.854790,68.856689 123.357185,66.429726 123.005760,63.659630 
	C124.888901,62.581932 126.928291,61.867725 128.967682,61.153519 
	C129.615479,63.213936 130.898590,65.305458 130.799515,67.329315 
	C130.401474,75.459763 129.549652,83.567276 128.927963,91.688042 
	C128.790512,93.483391 128.907822,95.298241 128.907822,97.505257 
	C134.789566,97.928238 140.393539,98.159996 145.954269,98.779732 
	C151.419037,99.388763 152.263992,101.375412 149.207184,105.913971 
	C145.400772,111.565445 141.483307,117.142120 137.258606,122.620117 
	C136.019928,121.657318 135.136414,120.825485 134.252899,119.993652 
	C137.077286,115.736374 139.982819,111.530121 142.701599,107.206436 
	C145.073059,103.435120 144.022568,101.334991 139.604736,100.986984 
	C133.836899,100.532631 128.054520,100.262711 121.854813,99.907433 
z"/>
<path fill="#35B4FC" opacity="1.000000" stroke="none" 
	d="
M48.045128,170.347870 
	C47.950840,165.162918 47.968140,160.293274 48.004921,155.423782 
	C48.018696,153.600464 47.677868,151.642303 48.234867,149.994446 
	C48.737007,148.508850 50.245014,147.363235 51.693790,146.022324 
	C56.946609,152.132263 61.815037,158.287567 66.749969,165.148849 
	C66.544724,169.252457 66.329758,172.655853 65.984261,176.045975 
	C65.676575,179.065033 65.224396,182.069366 64.835983,185.080200 
	C59.278812,180.274551 53.721634,175.468887 48.045128,170.347870 
z"/>
<path fill="#35B5FC" opacity="1.000000" stroke="none" 
	d="
M72.370407,57.923450 
	C67.897842,54.643490 66.746849,49.883492 68.627625,43.926270 
	C69.069717,42.525944 69.498329,41.121357 69.954948,39.319756 
	C77.050423,35.921253 84.124092,32.921730 91.589447,30.348812 
	C91.206764,36.363647 89.420532,42.077721 93.998924,47.000259 
	C86.899696,50.610458 79.800468,54.220665 72.370407,57.923450 
z"/>
<path fill="#36AEFC" opacity="1.000000" stroke="none" 
	d="
M94.398285,46.988373 
	C89.420532,42.077721 91.206764,36.363647 91.989960,30.347815 
	C99.692215,28.956882 107.385643,27.993551 115.527283,27.506338 
	C115.788315,31.871183 115.103447,35.819290 115.558289,39.631413 
	C115.986145,43.217392 114.660202,43.827251 111.644630,44.037971 
	C109.728783,44.171844 107.874580,45.187881 105.992729,45.808323 
	C102.261032,46.197712 98.529335,46.587101 94.398285,46.988373 
z"/>
<path fill="#35A4F7" opacity="1.000000" stroke="none" 
	d="
M106.451782,45.863354 
	C107.874580,45.187881 109.728783,44.171844 111.644630,44.037971 
	C114.660202,43.827251 115.986145,43.217392 115.558289,39.631413 
	C115.103447,35.819290 115.788315,31.871183 115.983307,27.569435 
	C120.770081,27.639874 125.549049,28.123333 130.665253,28.803200 
	C130.936539,34.639053 130.870590,40.278503 130.903534,46.302811 
	C122.971916,46.431244 114.941376,46.174812 106.451782,45.863354 
z"/>
<path fill="#36AAFB" opacity="1.000000" stroke="none" 
	d="
M65.025650,185.364807 
	C65.224396,182.069366 65.676575,179.065033 65.984261,176.045975 
	C66.329758,172.655853 66.544724,169.252457 66.899185,165.448395 
	C70.595932,167.790359 74.209976,170.538757 77.918716,174.081573 
	C78.348007,180.890564 78.682602,186.905106 79.017189,192.919662 
	C74.416565,190.496246 69.815941,188.072815 65.025650,185.364807 
z"/>
<path fill="#38A1FA" opacity="1.000000" stroke="none" 
	d="
M79.285591,193.148376 
	C78.682602,186.905106 78.348007,180.890564 78.017609,174.403961 
	C81.579697,175.387924 85.137581,176.843948 88.857979,179.077637 
	C89.009331,185.470352 88.998161,191.085358 88.987000,196.700378 
	C85.842667,195.592621 82.698326,194.484848 79.285591,193.148376 
z"/>
<path fill="#3E92F6" opacity="1.000000" stroke="none" 
	d="
M97.004768,181.069855 
	C99.090431,181.385529 101.176094,181.701187 103.910828,182.366776 
	C104.704796,188.424805 104.849709,194.132889 104.994614,199.840988 
	C104.821411,199.871780 104.648216,199.902573 103.919235,199.699524 
	C102.448662,199.357056 101.533882,199.248444 100.619095,199.139832 
	C99.241661,198.994904 97.864227,198.849976 96.210541,198.044418 
	C96.291115,191.945816 96.647942,186.507828 97.004768,181.069855 
z"/>
<path fill="#408AF4" opacity="1.000000" stroke="none" 
	d="
M105.375549,199.910034 
	C104.849709,194.132889 104.704796,188.424805 104.299141,182.447388 
	C107.414413,182.433151 110.790428,182.688217 114.580048,183.506500 
	C114.710014,189.183151 114.426369,194.296631 114.142731,199.410095 
	C111.347313,199.599762 108.551895,199.789429 105.375549,199.910034 
z"/>
<path fill="#3B99F8" opacity="1.000000" stroke="none" 
	d="
M96.641190,180.938904 
	C96.647942,186.507828 96.291115,191.945816 95.910339,197.872528 
	C93.831123,197.903458 91.775856,197.445633 89.353790,196.844086 
	C88.998161,191.085358 89.009331,185.470352 89.027252,179.381836 
	C91.448540,179.541534 93.863075,180.174728 96.641190,180.938904 
z"/>
<path fill="#39ABF3" opacity="1.000000" stroke="none" 
	d="
M103.737022,163.982544 
	C107.022377,158.670853 110.612251,153.455612 114.835403,148.143555 
	C116.603806,148.361221 117.738922,148.675690 118.874039,148.990158 
	C115.893951,153.340332 113.150581,157.886475 109.802048,161.931671 
	C108.669708,163.299591 106.005615,163.399551 103.737022,163.982544 
z"/>
<path fill="#4190F1" opacity="1.000000" stroke="none" 
	d="
M134.013794,120.248322 
	C135.136414,120.825485 136.019928,121.657318 136.975281,122.806656 
	C133.979660,127.657417 130.912201,132.190689 127.257645,136.826416 
	C125.759834,136.279495 124.849121,135.630127 123.938400,134.980743 
	C127.217178,130.154831 130.495941,125.328918 134.013794,120.248322 
z"/>
<path fill="#4080EF" opacity="1.000000" stroke="none" 
	d="
M114.510513,199.365906 
	C114.426369,194.296631 114.710014,189.183151 114.988937,183.615326 
	C118.939537,184.129501 120.662392,187.022766 120.802620,190.724411 
	C120.959946,194.877441 119.153282,198.042053 114.510513,199.365906 
z"/>
<path fill="#3B9EF3" opacity="1.000000" stroke="none" 
	d="
M123.649254,135.148987 
	C124.849121,135.630127 125.759834,136.279495 126.995941,137.021225 
	C124.694969,140.942184 122.068596,144.770798 119.158127,148.794769 
	C117.738922,148.675690 116.603806,148.361221 115.121712,147.976196 
	C117.636528,143.709518 120.498314,139.513382 123.649254,135.148987 
z"/>
<path fill="#408AF4" opacity="1.000000" stroke="none" 
	d="
M100.812881,199.365448 
	C101.533882,199.248444 102.448662,199.357056 103.661362,199.643646 
	C102.975067,199.744751 101.990868,199.667923 100.812881,199.365448 
z"/>
</svg>