<svg width="48" height="54" viewBox="0 0 48 54" fill="none" xmlns="http://www.w3.org/2000/svg">
<path d="M19.2011 32.4568V53.9386C17.4739 53.7121 15.8801 52.889 14.6956 51.6116C13.5112 50.3342 12.8105 48.6829 12.7149 46.9435C12.7149 46.6539 12.694 39.2368 12.6915 39.2362C12.6891 39.2356 12.6915 39.227 12.6915 39.222C12.6347 38.9122 12.4706 38.6323 12.2281 38.4314C11.9856 38.2304 11.68 38.1212 11.3651 38.1229L9.90865 38.0835C9.91543 38.089 4.63862 38.1001 4.63862 38.1001C3.82413 38.0993 3.02449 37.882 2.32158 37.4705C1.61868 37.059 1.03778 36.4681 0.638354 35.7583C0.238932 35.0484 0.0353473 34.2452 0.048446 33.4308C0.0615447 32.6164 0.290857 31.8202 0.7129 31.1235H9.77681L17.9092 31.166C18.2515 31.1665 18.5796 31.3026 18.8218 31.5446C19.0639 31.7865 19.2003 32.1145 19.2011 32.4568Z" fill="url(#paint0_linear_603_17684)"/>
<path d="M47.3981 22.7719H38.3558L30.1211 22.7287C29.7792 22.7278 29.4515 22.5914 29.2098 22.3496C28.968 22.1077 28.8319 21.78 28.8311 21.438V0.0825195C30.5368 0.305038 32.1134 1.10956 33.2945 2.36015C34.4756 3.61075 35.1888 5.23073 35.3135 6.94637C35.3135 6.96424 35.3135 6.9821 35.3135 7.00059C35.3159 7.02414 35.3159 7.04788 35.3135 7.07144C35.3135 7.72079 35.3191 14.4645 35.3191 14.4645C35.3333 15.133 35.9598 15.9185 36.6344 15.9185H43.4016C43.6076 15.9185 43.8135 15.9325 44.0177 15.9604C44.7604 16.0619 45.4671 16.3436 46.076 16.7809C46.685 17.2182 47.1776 17.7978 47.5111 18.4692C47.8446 19.1406 48.0088 19.8835 47.9893 20.6329C47.9698 21.3823 47.7673 22.1156 47.3994 22.7688L47.3981 22.7719Z" fill="url(#paint1_linear_603_17684)"/>
<path d="M47.0983 23.2346L47.1063 23.2414L26.0853 51.0412C25.1656 52.2601 23.8932 53.1666 22.4407 53.6375C20.9881 54.1084 19.4259 54.121 17.966 53.6735C16.506 53.2261 15.2192 52.3402 14.28 51.1363C13.3408 49.9323 12.7948 48.4685 12.7162 46.9436L12.6934 39.2369C13.1597 43.7461 13.1246 49.358 16.3006 49.3882C18.5234 49.4092 19.1783 48.1105 20.0199 47.0403L20.0464 47.0058C20.0661 46.9806 20.0858 46.9547 20.1043 46.9288L20.1098 46.9208L20.1179 46.9103L24.818 40.6909L38.3559 22.7719L38.8328 22.1404C39.2048 21.6548 39.4739 21.0983 39.6234 20.5051C39.773 19.9119 39.8 19.2944 39.7027 18.6903C39.6953 18.6448 39.6873 18.5992 39.6781 18.5542C39.473 17.5224 38.9194 16.5925 38.1101 15.9204H43.4017C43.6078 15.9204 43.8136 15.9344 44.0178 15.9623C44.8064 16.0707 45.5532 16.382 46.1853 16.8657C46.8174 17.3495 47.3129 17.9892 47.6235 18.722C47.934 19.4549 48.0489 20.2559 47.9568 21.0465C47.8647 21.8371 47.5689 22.5903 47.0983 23.2322V23.2346Z" fill="#F7EC00"/>
<path d="M0.891167 30.7655L0.883158 30.7588L21.9041 2.95896C22.8238 1.74002 24.0962 0.833571 25.5488 0.362653C27.0013 -0.108265 28.5635 -0.120847 30.0235 0.326615C31.4834 0.774078 32.7703 1.65991 33.7094 2.86388C34.6486 4.06785 35.1946 5.53164 35.2733 7.05657L35.2961 14.7632C34.8297 10.2541 34.8648 4.64211 31.6889 4.61192C29.466 4.59098 28.8111 5.88969 27.9695 6.95984L27.943 6.99434C27.9227 7.0196 27.9036 7.04548 27.8851 7.07135L27.8796 7.07936L27.8716 7.08983L23.1727 13.3093L9.63348 31.2282L9.15662 31.8597C8.78448 32.3453 8.51533 32.9018 8.36565 33.495C8.21596 34.0882 8.18889 34.7058 8.28609 35.3098C8.29348 35.3554 8.30211 35.401 8.31073 35.446C8.34721 35.627 8.39432 35.8058 8.45182 35.9813C8.71942 36.8017 9.21419 37.5293 9.87868 38.0797H4.5877C3.73896 38.0784 2.90717 37.8421 2.18457 37.3969C1.46197 36.9516 0.876801 36.315 0.493968 35.5575C0.111135 34.8 -0.0544055 33.9512 0.0157055 33.1054C0.0858166 32.2596 0.388839 31.4497 0.891167 30.7655Z" fill="#F7EC00"/>
<defs>
<linearGradient id="paint0_linear_603_17684" x1="4.87089" y1="27.788" x2="23.5138" y2="50.4767" gradientUnits="userSpaceOnUse">
<stop stop-color="#68741E"/>
<stop offset="0.52" stop-color="#F7EC00"/>
<stop offset="1" stop-color="#68741E"/>
</linearGradient>
<linearGradient id="paint1_linear_603_17684" x1="24.7562" y1="3.77536" x2="43.0658" y2="26.0488" gradientUnits="userSpaceOnUse">
<stop stop-color="#68741E"/>
<stop offset="0.5" stop-color="#F7EC00"/>
<stop offset="1" stop-color="#68741E"/>
</linearGradient>
</defs>
</svg>
